<svg data-v-2cb57da0="" version="1.0" xmlns="http://www.w3.org/2000/svg" xmlns:xlink="http://www.w3.org/1999/xlink" width="100%" height="100%" viewBox="0 0 340.000000 250.000000" preserveAspectRatio="xMidYMid meet" color-interpolation-filters="sRGB" style="margin: auto;"><rect data-v-2cb57da0="" x="0" y="0" width="100%" height="100%" fill="#feffff" fill-opacity="0" class="background"></rect> <rect data-v-2cb57da0="" x="0" y="0" width="100%" height="100%" fill="url(#watermark)" fill-opacity="1" class="watermarklayer"></rect> <g data-v-2cb57da0="" fill="#333" class="iconlinesvg-g iconlinesvg" transform="translate(71.69452667236328,100.6977653503418)"><g class="tp-name" transform="matrix(1,0,0,1,0,0)" opacity="1"><g transform="translate(0, 0)"><g><g class="imagesvg"><g><rect fill="#333" fill-opacity="0" stroke-width="2" x="0" y="0" width="36.06065872268188" height="34.448470312076694" class="image-rect"></rect> <svg x="0" y="0" width="36.06065872268188" height="34.448470312076694" filtersec="colorsb8739449592" class="image-svg-svg primary" style="overflow: visible;"><svg xmlns="http://www.w3.org/2000/svg" viewBox="0.002400010824203491 0 72.99759674072266 69.73406219482422"><title>资源 221</title><path d="M29.6 68.65q7.07-26.37 14.11-52.75a3.11 3.11 0 0 1 1.8-2.19C54.25 9.39 63 5 71.69.65 72.1.44 72.52.25 73 0a5.67 5.67 0 0 1-.39 2.05Q63.82 35 55 67.87c-.58 2.13-.09 1.77-2.34 1.78H30.54c-.38 0-1 .36-1.14-.41a.62.62 0 0 0 .2-.59z" fill="#b0fc6d"></path><path d="M29.6 68.65a.62.62 0 0 1-.21.57c-.52-.16-.63-.66-.85-1.06L7.75 29.38.38 15.62c-.6-1.12-.56-1.2.67-1.2h26.9c1.07 0 1.42.26 1.42 1.39q-.06 25.7 0 51.39a2.34 2.34 0 0 0 .23 1.45z" fill="#24cd79"></path></svg></svg> <!----></g></g></g></g><g transform="translate(40, 2.4769150947826066)"><g data-gra="path-name" fill="#333" transform="scale(1)"><path d="M19.69-27.57L12.68-17.72L5.63-27.57L0-27.57L10.36-13.03L10.36 0L14.96 0L14.96-13.03L25.32-27.57Z" transform="translate(0, 28.35265806169328)"></path></g></g><g transform="translate(69, 2.4769150947826066)"><g data-gra="path-name" fill="#333" transform="scale(1)"><path d="M10.75 0.39C15.20 0.39 19.33-2.44 19.33-7.72C19.33-10.99 17.76-13.78 14.85-15.12C12.88-16.03 10.95-16.03 10.75-16.03C8.70-16.03 6.73-17.25 6.73-19.53C6.73-22.09 8.58-23.35 10.75-23.35C12.84-23.35 14.61-22.33 14.69-20.04L19.26-20.04C19.18-24.73 15.52-27.96 10.75-27.96C6.30-27.96 2.13-24.77 2.13-19.53C2.13-16.26 3.74-13.82 6.62-12.48C8.62-11.58 10.51-11.58 10.75-11.58C12.60-11.50 14.77-10.04 14.77-7.72C14.77-5.55 12.88-4.21 10.75-4.21C8.70-4.21 6.81-5.36 6.73-7.64L2.13-7.64C2.21-2.48 5.99 0.28 10.75 0.39Z" transform="translate(-2.1264493546269962, 28.35265806169328)"></path></g></g><g transform="translate(90, 2.4769150947826066)"><g data-gra="path-name" fill="#333" transform="scale(1)"><path d="M19.26-27.57L19.26-16.15L7.80-16.15L7.80-27.57L3.19-27.57L3.19 0L7.80 0L7.80-11.50L19.26-11.50L19.26 0L23.86 0L23.86-27.57Z" transform="translate(-3.189674031940494, 28.35265806169328)"></path></g></g><g transform="translate(114, 2.4769150947826066)"><g data-gra="path-name" fill="#333" transform="scale(1)"><path d="M26.07-27.57L21.50-27.57L21.50-7.95L7.76-27.57L3.11-27.57L3.11 0L7.72 0L7.72-19.61L21.42 0L26.07 0Z" transform="translate(-3.1109166484357904, 28.35265806169328)"></path></g></g><g transform="translate(140, 2.4769150947826066)"><g data-gra="path-name" fill="#333" transform="scale(1)"><path d="M17.05 0L22.01 0L10.99-28.35L0 0L4.96 0L6.14-3.19L15.83-3.19ZM10.99-16.74L14.33-7.17L7.64-7.17Z" transform="translate(0, 28.35265806169328)"></path></g></g><g transform="translate(166, 2.4769150947826066)"><g data-gra="path-name" fill="#333" transform="scale(1)"><path d="M17.05-27.57L10.99-11.30L4.96-27.57L0-27.57L10.99 0.71L22.01-27.57Z" transform="translate(0, 28.35265806169328)"></path></g></g><g transform="translate(192, 2.4769150947826066)"><g data-gra="path-name" fill="#333" transform="scale(1)"><path d="M3.23 0L7.84 0L7.84-27.57L3.23-27.57Z" transform="translate(-3.229052723692846, 28.35265806169328)"></path></g></g></g> <g data-gra="path-slogan" fill-rule="" class="tp-slogan" fill="#333" transform="matrix(1,0,0,1,5,40.44847106933594)" opacity="1"><rect x="0" height="1" y="3.580000400543213" width="59.37547302246094"></rect> <rect height="1" y="3.580000400543213" width="59.37547302246094" x="127.2354736328125"></rect> <g transform="translate(62.37547302246094,0)"><g transform="scale(1)"><path d="M4.43-3.20L2.06-3.20L2.44-4.40C2.58-4.84 2.72-5.28 2.84-5.72C2.97-6.15 3.10-6.60 3.22-7.06L3.26-7.06C3.39-6.60 3.52-6.15 3.65-5.72C3.78-5.28 3.91-4.84 4.06-4.40ZM4.68-2.40L5.42 0L6.49 0L3.83-7.87L2.70-7.87L0.04 0L1.06 0L1.81-2.40ZM7.63-1.72L7.03-1.02C7.38-0.66 7.78-0.38 8.26-0.17C8.73 0.04 9.24 0.14 9.79 0.14C10.21 0.14 10.58 0.09 10.91-0.03C11.24-0.15 11.52-0.31 11.75-0.51C11.98-0.71 12.16-0.95 12.28-1.22C12.41-1.50 12.47-1.79 12.47-2.10C12.47-2.39 12.43-2.64 12.34-2.86C12.26-3.08 12.14-3.27 12-3.44C11.86-3.60 11.68-3.75 11.48-3.87C11.28-3.99 11.07-4.10 10.85-4.20L9.73-4.68C9.57-4.74 9.42-4.81 9.26-4.89C9.11-4.97 8.97-5.05 8.84-5.15C8.72-5.25 8.61-5.37 8.54-5.50C8.46-5.63 8.42-5.80 8.42-5.99C8.42-6.35 8.56-6.63 8.83-6.83C9.09-7.04 9.45-7.14 9.89-7.14C10.26-7.14 10.59-7.07 10.88-6.94C11.17-6.81 11.44-6.63 11.68-6.40L12.22-7.04C11.94-7.33 11.60-7.57 11.20-7.75C10.80-7.93 10.36-8.02 9.89-8.02C9.53-8.02 9.20-7.96 8.90-7.86C8.60-7.76 8.34-7.61 8.12-7.42C7.90-7.23 7.73-7.01 7.60-6.76C7.48-6.50 7.42-6.22 7.42-5.93C7.42-5.64 7.46-5.39 7.56-5.17C7.66-4.95 7.78-4.76 7.93-4.60C8.08-4.44 8.26-4.30 8.45-4.19C8.64-4.08 8.83-3.98 9.01-3.90L10.14-3.41C10.32-3.32 10.50-3.24 10.66-3.16C10.82-3.08 10.95-2.99 11.07-2.89C11.19-2.79 11.28-2.67 11.35-2.53C11.41-2.39 11.45-2.22 11.45-2.02C11.45-1.63 11.30-1.32 11.02-1.09C10.73-0.85 10.32-0.73 9.80-0.73C9.40-0.73 9.00-0.82 8.62-1.00C8.24-1.18 7.91-1.42 7.63-1.72ZM13.87-1.72L13.27-1.02C13.62-0.66 14.02-0.38 14.50-0.17C14.97 0.04 15.48 0.14 16.03 0.14C16.45 0.14 16.82 0.09 17.15-0.03C17.48-0.15 17.76-0.31 17.99-0.51C18.22-0.71 18.40-0.95 18.52-1.22C18.65-1.50 18.71-1.79 18.71-2.10C18.71-2.39 18.67-2.64 18.58-2.86C18.50-3.08 18.38-3.27 18.24-3.44C18.10-3.60 17.92-3.75 17.72-3.87C17.52-3.99 17.31-4.10 17.09-4.20L15.97-4.68C15.81-4.74 15.66-4.81 15.50-4.89C15.35-4.97 15.21-5.05 15.08-5.15C14.96-5.25 14.85-5.37 14.78-5.50C14.70-5.63 14.66-5.80 14.66-5.99C14.66-6.35 14.80-6.63 15.07-6.83C15.33-7.04 15.69-7.14 16.13-7.14C16.50-7.14 16.83-7.07 17.12-6.94C17.41-6.81 17.68-6.63 17.92-6.40L18.46-7.04C18.18-7.33 17.84-7.57 17.44-7.75C17.04-7.93 16.60-8.02 16.13-8.02C15.77-8.02 15.44-7.96 15.14-7.86C14.84-7.76 14.58-7.61 14.36-7.42C14.14-7.23 13.97-7.01 13.84-6.76C13.72-6.50 13.66-6.22 13.66-5.93C13.66-5.64 13.70-5.39 13.80-5.17C13.90-4.95 14.02-4.76 14.17-4.60C14.32-4.44 14.50-4.30 14.69-4.19C14.88-4.08 15.07-3.98 15.25-3.90L16.38-3.41C16.56-3.32 16.74-3.24 16.90-3.16C17.06-3.08 17.19-2.99 17.31-2.89C17.43-2.79 17.52-2.67 17.59-2.53C17.65-2.39 17.69-2.22 17.69-2.02C17.69-1.63 17.54-1.32 17.26-1.09C16.97-0.85 16.56-0.73 16.04-0.73C15.64-0.73 15.24-0.82 14.86-1.00C14.48-1.18 14.15-1.42 13.87-1.72ZM23.16 0.14C23.66 0.14 24.11 0.05 24.52-0.14C24.93-0.34 25.29-0.61 25.59-0.97C25.89-1.32 26.12-1.75 26.29-2.26C26.45-2.77 26.53-3.34 26.53-3.97C26.53-4.60 26.45-5.16 26.29-5.66C26.12-6.16 25.89-6.58 25.59-6.93C25.29-7.28 24.93-7.55 24.52-7.73C24.11-7.92 23.66-8.02 23.16-8.02C22.66-8.02 22.21-7.92 21.80-7.74C21.39-7.56 21.03-7.29 20.74-6.94C20.44-6.59 20.21-6.17 20.05-5.67C19.88-5.17 19.80-4.60 19.80-3.97C19.80-3.34 19.88-2.77 20.05-2.26C20.21-1.75 20.44-1.32 20.74-0.97C21.03-0.61 21.39-0.34 21.80-0.14C22.21 0.05 22.66 0.14 23.16 0.14ZM23.16-0.73C22.81-0.73 22.49-0.81 22.21-0.96C21.92-1.11 21.68-1.33 21.47-1.61C21.27-1.90 21.11-2.24 21.00-2.63C20.89-3.03 20.83-3.48 20.83-3.97C20.83-4.46 20.89-4.90 21.00-5.29C21.11-5.68 21.27-6.02 21.47-6.29C21.68-6.56 21.92-6.77 22.21-6.92C22.49-7.07 22.81-7.14 23.16-7.14C23.51-7.14 23.83-7.07 24.11-6.92C24.40-6.77 24.64-6.56 24.85-6.29C25.05-6.02 25.21-5.68 25.32-5.29C25.43-4.90 25.49-4.46 25.49-3.97C25.49-3.48 25.43-3.03 25.32-2.63C25.21-2.24 25.05-1.90 24.85-1.61C24.64-1.33 24.40-1.11 24.11-0.96C23.83-0.81 23.51-0.73 23.16-0.73ZM27.77-3.94C27.77-3.30 27.85-2.72 28.03-2.21C28.20-1.71 28.44-1.28 28.75-0.93C29.05-0.58 29.42-0.32 29.84-0.13C30.26 0.05 30.72 0.14 31.21 0.14C31.72 0.14 32.16 0.04 32.56-0.16C32.95-0.36 33.30-0.64 33.61-1.00L33.05-1.61C32.79-1.33 32.52-1.11 32.24-0.96C31.95-0.81 31.62-0.73 31.24-0.73C30.86-0.73 30.52-0.81 30.22-0.96C29.92-1.11 29.67-1.33 29.46-1.61C29.25-1.89 29.09-2.23 28.97-2.62C28.86-3.02 28.80-3.46 28.80-3.96C28.80-4.45 28.86-4.89 28.98-5.28C29.10-5.67 29.27-6.01 29.48-6.28C29.70-6.56 29.96-6.77 30.26-6.92C30.57-7.07 30.91-7.14 31.28-7.14C31.62-7.14 31.91-7.07 32.17-6.94C32.42-6.81 32.65-6.63 32.86-6.41L33.42-7.04C33.19-7.30 32.89-7.53 32.53-7.72C32.17-7.92 31.75-8.02 31.27-8.02C30.77-8.02 30.30-7.92 29.87-7.73C29.45-7.55 29.08-7.28 28.76-6.92C28.45-6.57 28.21-6.14 28.03-5.64C27.86-5.14 27.77-4.57 27.77-3.94ZM35.08-7.87L35.08 0L36.07 0L36.07-7.87ZM41.58-3.20L39.22-3.20L39.59-4.40C39.73-4.84 39.87-5.28 40.00-5.72C40.12-6.15 40.25-6.60 40.37-7.06L40.42-7.06C40.54-6.60 40.67-6.15 40.80-5.72C40.93-5.28 41.06-4.84 41.21-4.40ZM41.83-2.40L42.58 0L43.64 0L40.98-7.87L39.85-7.87L37.19 0L38.21 0L38.96-2.40ZM45.91-7.03L45.91 0L46.92 0L46.92-7.03L49.30-7.03L49.30-7.87L43.54-7.87L43.54-7.03ZM50.71-7.87L50.71 0L55.37 0L55.37-0.85L51.71-0.85L51.71-3.71L54.70-3.71L54.70-4.56L51.71-4.56L51.71-7.03L55.25-7.03L55.25-7.87ZM57.06-1.72L56.46-1.02C56.80-0.66 57.21-0.38 57.68-0.17C58.16 0.04 58.67 0.14 59.22 0.14C59.64 0.14 60.01 0.09 60.34-0.03C60.66-0.15 60.94-0.31 61.18-0.51C61.41-0.71 61.59-0.95 61.71-1.22C61.83-1.50 61.90-1.79 61.90-2.10C61.90-2.39 61.85-2.64 61.77-2.86C61.69-3.08 61.57-3.27 61.43-3.44C61.28-3.60 61.11-3.75 60.91-3.87C60.71-3.99 60.50-4.10 60.28-4.20L59.16-4.68C59.00-4.74 58.84-4.81 58.69-4.89C58.54-4.97 58.40-5.05 58.27-5.15C58.14-5.25 58.04-5.37 57.97-5.50C57.89-5.63 57.85-5.80 57.85-5.99C57.85-6.35 57.99-6.63 58.25-6.83C58.52-7.04 58.88-7.14 59.32-7.14C59.68-7.14 60.01-7.07 60.31-6.94C60.60-6.81 60.86-6.63 61.10-6.40L61.64-7.04C61.36-7.33 61.02-7.57 60.62-7.75C60.22-7.93 59.79-8.02 59.32-8.02C58.96-8.02 58.63-7.96 58.33-7.86C58.03-7.76 57.77-7.61 57.55-7.42C57.33-7.23 57.15-7.01 57.03-6.76C56.91-6.50 56.84-6.22 56.84-5.93C56.84-5.64 56.89-5.39 56.99-5.17C57.08-4.95 57.21-4.76 57.36-4.60C57.51-4.44 57.68-4.30 57.88-4.19C58.07-4.08 58.26-3.98 58.44-3.90L59.57-3.41C59.75-3.32 59.92-3.24 60.08-3.16C60.24-3.08 60.38-2.99 60.50-2.89C60.61-2.79 60.71-2.67 60.77-2.53C60.84-2.39 60.88-2.22 60.88-2.02C60.88-1.63 60.73-1.32 60.44-1.09C60.16-0.85 59.75-0.73 59.23-0.73C58.82-0.73 58.43-0.82 58.05-1.00C57.67-1.18 57.34-1.42 57.06-1.72Z" transform="translate(-0.036000000000000004, 8.016)"></path></g></g></g></g><defs v-gra="od"></defs></svg>